<svg width="20" height="20" viewBox="0 0 20 20" fill="none" xmlns="http://www.w3.org/2000/svg">
<g filter="url(#filter0_b_16021_21)">
<path d="M0 9.9999C0 4.4856 4.4856 0 9.9999 0C15.5142 0 19.9998 4.4856 19.9998 9.9999C19.9998 15.5142 15.5142 19.9998 9.9999 19.9998C4.4856 19.9998 0 15.5142 0 9.9999ZM1.4481 9.9999C1.4481 14.7159 5.2848 18.5526 9.9999 18.5526C14.7159 18.5526 18.5526 14.7159 18.5526 9.9999C18.5526 5.2848 14.7159 1.4481 9.9999 1.4481C5.2848 1.4481 1.4481 5.2848 1.4481 9.9999ZM6.1902 13.6521C6.0534 13.4658 6.0147 13.2309 6.0849 13.0086L7.6221 8.0964C7.6932 7.8705 7.8705 7.6932 8.0964 7.6221L13.0086 6.0849C13.0806 6.0624 13.1553 6.0507 13.2282 6.0507C13.455 6.0507 13.6728 6.1623 13.8096 6.3486C13.9464 6.5349 13.9851 6.7689 13.9158 6.9921L12.3786 11.9034C12.3075 12.1293 12.1293 12.3075 11.9034 12.3786L6.9921 13.9158C6.9192 13.9383 6.8454 13.95 6.7716 13.95C6.5448 13.95 6.3279 13.8384 6.1902 13.6521ZM8.8902 8.8902L7.8786 12.1203L11.1096 11.1096L12.1203 7.8786L8.8902 8.8902Z" fill="#200E32"/>
</g>
<defs>
<filter id="filter0_b_16021_21" x="-9.98147" y="-9.98147" width="39.9628" height="39.9627" filterUnits="userSpaceOnUse" color-interpolation-filters="sRGB">
<feFlood flood-opacity="0" result="BackgroundImageFix"/>
<feGaussianBlur in="BackgroundImageFix" stdDeviation="4.99073"/>
<feComposite in2="SourceAlpha" operator="in" result="effect1_backgroundBlur_16021_21"/>
<feBlend mode="normal" in="SourceGraphic" in2="effect1_backgroundBlur_16021_21" result="shape"/>
</filter>
</defs>
</svg>
